<svg width="22" height="22" viewBox="0 0 22 22" fill="none" xmlns="http://www.w3.org/2000/svg">
<path fill-rule="evenodd" clip-rule="evenodd" d="M10.0834 1.83333C14.6397 1.83333 18.3334 5.52698 18.3334 10.0833C18.3334 12.031 17.6584 13.8211 16.5297 15.2324L19.8982 18.6018C20.2562 18.9598 20.2562 19.5402 19.8982 19.8982C19.5678 20.2286 19.0478 20.254 18.6882 19.9744L18.6019 19.8982L15.2325 16.5296C13.8212 17.6584 12.0311 18.3333 10.0834 18.3333C5.52702 18.3333 1.83337 14.6397 1.83337 10.0833C1.83337 5.52698 5.52702 1.83333 10.0834 1.83333ZM10.0834 3.66666C6.53955 3.66666 3.66671 6.5395 3.66671 10.0833C3.66671 13.6272 6.53955 16.5 10.0834 16.5C13.6272 16.5 16.5 13.6272 16.5 10.0833C16.5 6.5395 13.6272 3.66666 10.0834 3.66666Z" fill="#86868B"/>
</svg>
