<svg width="15" height="15" viewBox="0 0 15 15" fill="none" xmlns="http://www.w3.org/2000/svg">
<path fill-rule="evenodd" clip-rule="evenodd" d="M2.5 6.25C3.19036 6.25 3.75 6.80964 3.75 7.5C3.75 8.19036 3.19036 8.75 2.5 8.75C1.80964 8.75 1.25 8.19036 1.25 7.5C1.25 6.80964 1.80964 6.25 2.5 6.25ZM7.5 6.25C8.19036 6.25 8.75 6.80964 8.75 7.5C8.75 8.19036 8.19036 8.75 7.5 8.75C6.80964 8.75 6.25 8.19036 6.25 7.5C6.25 6.80964 6.80964 6.25 7.5 6.25ZM12.5 6.25C13.1904 6.25 13.75 6.80964 13.75 7.5C13.75 8.19036 13.1904 8.75 12.5 8.75C11.8096 8.75 11.25 8.19036 11.25 7.5C11.25 6.80964 11.8096 6.25 12.5 6.25Z" fill="#1D1D1F"/>
</svg>
